<?xml version="1.0" encoding="utf-8"?>
<!-- Generator: Adobe Illustrator 19.1.0, SVG Export Plug-In . SVG Version: 6.00 Build 0)  -->
<svg version="1.1" id="Layer_1" xmlns="http://www.w3.org/2000/svg" xmlns:xlink="http://www.w3.org/1999/xlink" x="0px" y="0px"
	 viewBox="0 0 100 100" style="enable-background:new 0 0 100 100;" xml:space="preserve">
<style type="text/css">
	.st0{fill:#75757F;}
</style>
<path class="st0" d="M87.4,10.7h-3.5V7.2c0-4-3.2-7.2-7.2-7.2c-3.9,0-7.2,3.2-7.2,7.2v3.5H30.4V7.2c0-4-3.2-7.2-7.2-7.2
	c-4,0-7.2,3.2-7.2,7.2v3.5h-3.6c-3.9,0-7.1,3.2-7.1,7.2v16.1v21.4v21.4v21.4c0,1,0.8,1.8,1.8,1.8h21.4H50h21.4h21.4
	c1,0,1.8-0.8,1.8-1.8V76.8V55.3V33.9V17.9C94.6,13.9,91.5,10.7,87.4,10.7z M48.2,35.7v17.8H30.4V35.7H48.2z M69.6,35.7v17.8H51.8
	V35.7H69.6z M91,35.7v17.8H73.2V35.7H91z M26.8,53.5H9V35.7h17.8V53.5z M9,57.1h17.8v17.8H9V57.1z M30.4,57.1h17.8v17.8H30.4V57.1z
	 M51.8,57.1h17.8v17.8H51.8V57.1z M73.2,57.1H91v17.8H73.2V57.1z M73.2,7.2c0-2,1.6-3.5,3.5-3.5c2,0,3.5,1.6,3.5,3.5v5.4v5.4
	c0,2-1.6,3.5-3.5,3.5c-2,0-3.5-1.6-3.5-3.5v-5.4V7.2z M19.7,7.2c0-2,1.6-3.5,3.5-3.5c2,0,3.5,1.6,3.5,3.5v5.4v5.4
	c0,2-1.6,3.5-3.5,3.5c-2,0-3.5-1.6-3.5-3.5v-5.4V7.2z M9,17.9c0-1.9,1.6-3.5,3.6-3.5h3.5v3.5c0,4,3.2,7.2,7.2,7.2
	c3.9,0,7.2-3.2,7.2-7.2v-3.5h39.2v3.5c0,4,3.2,7.2,7.2,7.2c4,0,7.2-3.2,7.2-7.2v-3.5h3.6c1.9,0,3.5,1.6,3.5,3.5v14.2H71.7h-0.3h-0.3
	H50.3H50h-0.3H28.6H9V17.9z M9,78.6h17.8v17.8H9V78.6z M30.4,78.6h17.8v17.8H30.4V78.6z M51.8,78.6h17.8v17.8H51.8V78.6z M91,96.4
	H73.2V78.6H91V96.4z"/>
</svg>
