<?xml version="1.0" encoding="utf-8"?>
<!-- Generator: Adobe Illustrator 19.1.0, SVG Export Plug-In . SVG Version: 6.00 Build 0)  -->
<svg version="1.1" id="Layer_1" xmlns="http://www.w3.org/2000/svg" xmlns:xlink="http://www.w3.org/1999/xlink" x="0px" y="0px"
	 viewBox="0 0 100 100" style="enable-background:new 0 0 100 100;" xml:space="preserve">
<style type="text/css">
	.st0{fill:#75757F;}
</style>
<g>
	<path class="st0" d="M50.9,0L50,0C22.9,0,0.5,22,0,49.1C-0.5,76.7,21.5,99.5,49.1,100l0.9,0c27.1,0,49.5-22,50-49.1
		C100.5,23.3,78.5,0.5,50.9,0z M50,96.4l-0.9,0c-25.6-0.5-46-21.7-45.6-47.2C4.1,24,24.9,3.6,50,3.6l0.9,0
		c25.6,0.5,46,21.7,45.6,47.2C95.9,76,75.1,96.4,50,96.4z"/>
	<path class="st0" d="M70.3,36.3L45.6,60.2L30.1,44.1c-0.7-0.7-1.8-0.7-2.5,0c-0.7,0.7-0.7,1.8,0,2.5L44.2,64
		c0.3,0.4,0.8,0.7,1.3,0.5c0.5,0,0.9-0.2,1.2-0.5l26-25.1c0.7-0.7,0.7-1.8,0-2.5C72.1,35.7,71,35.6,70.3,36.3z"/>
</g>
</svg>
