<?xml version="1.0" encoding="utf-8"?>
<!-- Generator: Adobe Illustrator 19.1.0, SVG Export Plug-In . SVG Version: 6.00 Build 0)  -->
<svg version="1.1" id="Layer_1" xmlns="http://www.w3.org/2000/svg" xmlns:xlink="http://www.w3.org/1999/xlink" x="0px" y="0px"
	 viewBox="0 0 100 100" style="enable-background:new 0 0 100 100;" xml:space="preserve">
<style type="text/css">
	.st0{fill:#75757F;}
</style>
<g>
	<path class="st0" d="M50.9,0L50,0C22.9,0,0.5,22,0,49.1C-0.5,76.7,21.5,99.5,49.1,100l0.9,0c27.1,0,49.5-22,50-49.1
		c0.2-13.4-4.7-26-14-35.6C76.7,5.7,64.3,0.3,50.9,0z M50,96.4l-0.9,0c-25.6-0.5-46-21.7-45.6-47.2C4.1,24,24.9,3.6,50,3.6l0.9,0
		c12.4,0.2,24,5.3,32.6,14.2c8.6,8.9,13.2,20.7,13,33C95.9,76,75.1,96.4,50,96.4z"/>
	<path class="st0" d="M66.1,32L50,47.5L34.6,31.4c-0.7-0.7-1.8-0.7-2.5,0c-0.7,0.7-0.7,1.8,0,2.5L47.5,50L31.4,65.4
		c-0.7,0.7-0.7,1.8,0,2.5c0.4,0.4,0.8,0.5,1.3,0.5c0.4,0,0.9-0.2,1.2-0.5l16.1-15.5l15.5,16c0.4,0.4,0.8,0.6,1.3,0.6
		c0.5,0,0.9-0.2,1.2-0.5c0.7-0.7,0.7-1.8,0-2.5L52.5,50l16.1-15.5c0.7-0.7,0.7-1.8,0.1-2.5C67.9,31.3,66.8,31.3,66.1,32z"/>
</g>
</svg>
