<?xml version="1.0" encoding="utf-8"?>
<!-- Generator: Adobe Illustrator 19.1.0, SVG Export Plug-In . SVG Version: 6.00 Build 0)  -->
<svg version="1.1" id="Layer_1" xmlns="http://www.w3.org/2000/svg" xmlns:xlink="http://www.w3.org/1999/xlink" x="0px" y="0px"
	 viewBox="0 0 100 100" style="enable-background:new 0 0 100 100;" xml:space="preserve">
<style type="text/css">
	.st0{fill:#F8D509;}
</style>
<path class="st0" d="M100,34.8c0-0.1-0.1-0.1-0.1-0.2c0-0.2,0-0.3-0.1-0.5L89.6,9.8c-0.3-0.7-0.9-1.1-1.7-1.1H12.1
	c-0.7,0-1.4,0.4-1.7,1.1L0.1,34.1c-0.1,0.2,0,0.3-0.1,0.5c0,0.1-0.1,0.1-0.1,0.2c0,0,0,0.1,0,0.1c0,0.4,0.1,0.8,0.4,1.1l48.2,54.7
	c0,0,0.1,0,0.2,0.1c0.1,0.1,0.2,0.2,0.4,0.3c0,0,0,0.1,0.1,0.1c0.2,0.1,0.5,0.2,0.7,0.2c0.2,0,0.5-0.1,0.7-0.2c0,0,0.1-0.1,0.1-0.1
	c0.2-0.1,0.3-0.2,0.4-0.3c0,0,0.1,0,0.2-0.1L99.5,36c0.3-0.3,0.4-0.7,0.4-1.1C100,34.9,100,34.8,100,34.8z M62.3,12.3L71.2,33H28.8
	l8.9-20.7H62.3z M71.1,36.6L50,85L28.9,36.6H71.1z M24.9,36.6l18.8,43l-37.9-43H24.9z M75.1,36.6h19.1l-37.9,43L75.1,36.6z M95.5,33
	H75.1l-8.9-20.7h20.5L95.5,33z M13.3,12.3h20.5L24.9,33H4.5L13.3,12.3z"/>
</svg>
