<?xml version="1.0" encoding="utf-8"?>
<!-- Generator: Adobe Illustrator 19.1.0, SVG Export Plug-In . SVG Version: 6.00 Build 0)  -->
<svg version="1.1" id="Layer_1" xmlns="http://www.w3.org/2000/svg" xmlns:xlink="http://www.w3.org/1999/xlink" x="0px" y="0px"
	 viewBox="0 0 100 100" style="enable-background:new 0 0 100 100;" xml:space="preserve">
<style type="text/css">
	.st0{fill:#75757F;}
</style>
<g>
	<path class="st0" d="M95.2,65.4c0-0.1,0.1-0.2,0-0.2L78.9,12c-0.2-0.7-0.8-1.1-1.5-1.1l-16.4,0c0,0,0,0,0,0c-0.9,0-1.6,0.7-1.6,1.6
		c0,0.9,0.7,1.6,1.6,1.6l15.2,0L91.5,64H65.6c-0.4,0-0.9,0.2-1.2,0.5L50,79.7L34.8,64.5c-0.3-0.3-0.7-0.5-1.1-0.5H8.5l15.4-49.8
		l15.2,0c0.9,0,1.6-0.7,1.6-1.6c0-0.9-0.7-1.6-1.6-1.6c0,0,0,0,0,0l-16.4,0c-0.7,0-1.3,0.5-1.5,1.2L4.8,65.1c0,0.1,0,0.2,0,0.2
		c0,0.1-0.1,0.1-0.1,0.2v32.8c0,0.9,0.7,1.6,1.6,1.6h87.4c0.9,0,1.6-0.7,1.6-1.6V65.6C95.3,65.5,95.2,65.5,95.2,65.4z M92.1,96.7
		H7.9V67.2h25l15.9,15.9c0.3,0.3,0.7,0.5,1.1,0.5c0.5,0,0.9-0.2,1.2-0.5l15.1-15.9h25.8V96.7z"/>
	<path class="st0" d="M40.2,53.5c-0.6-0.6-1.7-0.6-2.3,0c-0.6,0.6-0.6,1.7,0,2.3l10.9,10.9c0.3,0.3,0.7,0.5,1.2,0.5
		c0.4,0,0.8-0.2,1.2-0.5l10.9-10.9c0.6-0.6,0.6-1.7,0-2.3c-0.6-0.6-1.7-0.6-2.3,0l-8.1,8.1V1.6C51.6,0.7,50.9,0,50,0
		c-0.9,0-1.6,0.7-1.6,1.6v60.1L40.2,53.5z"/>
</g>
</svg>
