<?xml version="1.0" encoding="utf-8"?>
<!-- Generator: Adobe Illustrator 19.1.0, SVG Export Plug-In . SVG Version: 6.00 Build 0)  -->
<svg version="1.1" id="Layer_1" xmlns="http://www.w3.org/2000/svg" xmlns:xlink="http://www.w3.org/1999/xlink" x="0px" y="0px"
	 viewBox="0 0 100 100" style="enable-background:new 0 0 100 100;" xml:space="preserve">
<style type="text/css">
	.st0{fill:#75757F;}
</style>
<g>
	<path class="st0" d="M14.1,100h71.7V0H14.1V100z M17.7,3.6h64.6v92.8H17.7V3.6z"/>
	<path class="st0" d="M68,24.2c-1,0-1.8,0.8-1.8,1.8v32.7L51.6,31.2c-0.1-0.2-0.3-0.2-0.4-0.3c-0.1-0.1-0.2-0.3-0.4-0.4
		c-0.1,0-0.1,0-0.2,0c-0.2-0.1-0.4-0.1-0.7,0c-0.2,0-0.4,0-0.6,0.1c-0.1,0-0.1,0-0.2,0c-0.2,0.1-0.2,0.3-0.4,0.4
		c-0.1,0.1-0.3,0.2-0.4,0.3l-18,36c-0.4,0.9-0.1,2,0.8,2.4c0.3,0.1,0.5,0.2,0.8,0.2c0.7,0,1.3-0.4,1.6-1l8.5-17h16.4l7.7,14.5v9.9
		c0,1,0.8,1.8,1.8,1.8c1,0,1.8-0.8,1.8-1.8V26C69.8,25,69,24.2,68,24.2z M43.9,48.2L50,35.9l6.5,12.3H43.9z"/>
</g>
</svg>
