<?xml version="1.0" encoding="utf-8"?>
<!-- Generator: Adobe Illustrator 19.1.0, SVG Export Plug-In . SVG Version: 6.00 Build 0)  -->
<svg version="1.1" id="Layer_1" xmlns="http://www.w3.org/2000/svg" xmlns:xlink="http://www.w3.org/1999/xlink" x="0px" y="0px"
	 viewBox="0 0 100 100" style="enable-background:new 0 0 100 100;" xml:space="preserve">
<style type="text/css">
	.st0{fill:#75757F;}
</style>
<g>
	<path class="st0" d="M98.2,21.1H57.1L51.6,10c-0.3-0.6-0.9-1-1.6-1H7.8c-0.7,0-1.3,0.4-1.6,1l-6,12.1c-0.1,0.1,0,0.3,0,0.4
		c0,0.1-0.2,0.2-0.2,0.4v66.3c0,1,0.8,1.8,1.8,1.8h74.4c-0.5-1.1-0.8-2.3-0.8-3.6H3.6V24.7h52.2c0.1,0,0.2,0.1,0.2,0.1
		c0.1,0,0.2-0.1,0.3-0.1h40.1v41.7c1.3,0,2.5,0.3,3.6,0.8V22.9C100,21.9,99.2,21.1,98.2,21.1z M4.7,21.1l4.2-8.5h40l4.2,8.5H4.7z"/>
	<path class="st0" d="M96.4,73.5H86.2l0-10.3c0-1-0.8-1.8-1.8-1.8s-1.8,0.8-1.8,1.8l0,10.3H72.3c-1,0-1.8,0.8-1.8,1.8
		c0,0.5,0.2,0.9,0.5,1.3c0.3,0.3,0.8,0.5,1.3,0.5h10.3l0,10.2c0,0.5,0.2,0.9,0.5,1.3c0.3,0.3,0.8,0.5,1.3,0.5c1,0,1.8-0.8,1.8-1.8
		l0-10.2h10.3c1,0,1.8-0.8,1.8-1.8C98.2,74.3,97.4,73.5,96.4,73.5z"/>
</g>
</svg>
