<?xml version="1.0" encoding="utf-8"?>
<!-- Generator: Adobe Illustrator 19.1.0, SVG Export Plug-In . SVG Version: 6.00 Build 0)  -->
<svg version="1.1" id="Layer_1" xmlns="http://www.w3.org/2000/svg" xmlns:xlink="http://www.w3.org/1999/xlink" x="0px" y="0px"
	 viewBox="0 0 100 100" style="enable-background:new 0 0 100 100;" xml:space="preserve">
<style type="text/css">
	.st0{fill:#75757F;}
</style>
<g>
	<path class="st0" d="M98.1,0H1.7c-1,0-1.8,0.8-1.8,1.8v96.4c0,1,0.8,1.8,1.8,1.8h96.4c1,0,1.8-0.8,1.8-1.8V1.8
		C99.9,0.8,99.1,0,98.1,0z M96.3,96.4H3.5V3.5h92.8V96.4z"/>
	<path class="st0" d="M13.7,87.9H86c0.5,0,0.9-0.2,1.3-0.5c0.3-0.3,0.5-0.8,0.5-1.3V13.8c0-1-0.8-1.8-1.8-1.8H13.7
		c-1,0-1.8,0.8-1.8,1.8V62v24.1C11.9,87.1,12.8,87.9,13.7,87.9z M15.5,15.6h68.7V62c0,0,0,0,0,0c0,5.7-4.6,10.3-10.2,10.3
		c-2.5,0-5-1-6.8-2.8L75.5,57c0.4-0.5,0.4-1.2,0.1-1.8c-0.3-0.6-0.9-0.9-1.6-0.9H25.8c-0.7,0-1.3,0.4-1.6,0.9
		C24,55.7,24,56.4,24.4,57l8.3,12.5c-1.9,1.8-4.3,2.8-6.9,2.8c-5.7,0-10.3-4.6-10.3-10.3V15.6z M64.9,66.4c-0.1-0.2-0.3-0.4-0.4-0.6
		c-0.1-0.2-0.2-0.5-0.3-0.7c-0.3-1-0.6-2-0.6-3.1c0-1-0.8-1.8-1.8-1.8c-1,0-1.8,0.8-1.8,1.8c0,5.7-4.6,10.3-10.3,10.3
		c-5.7,0-10.3-4.6-10.3-10.3c0-1-0.8-1.8-1.8-1.8c-1,0-1.8,0.8-1.8,1.8c0,1.1-0.2,2.1-0.6,3.1c-0.1,0.2-0.2,0.5-0.3,0.7
		c-0.1,0.2-0.2,0.4-0.3,0.6l-5.7-8.6h41.5L64.9,66.4z M15.5,71.3c2.5,2.8,6.2,4.6,10.3,4.6c4,0,7.9-1.8,10.6-5
		c0.6-0.7,1.1-1.4,1.5-2.1c2.4,4.2,6.9,7.1,12.1,7.1c5.2,0,9.7-2.9,12.1-7.1c0.4,0.7,0.9,1.5,1.5,2.1c0,0,0,0,0,0
		c2.7,3.1,6.5,4.9,10.5,4.9c4.1,0,7.7-1.8,10.2-4.6l0,13H15.5V71.3z"/>
	<path class="st0" d="M31.9,51.7H68c0,0,0.1,0,0.1,0c1,0,1.8-0.8,1.8-1.8c0-0.6-0.3-1.1-0.7-1.4L51.4,24.8c-0.7-0.9-2.2-0.9-2.9,0
		L30.4,48.9c-0.4,0.6-0.5,1.3-0.2,1.9C30.6,51.4,31.2,51.7,31.9,51.7z M49.9,28.8l14.5,19.3h-29L49.9,28.8z"/>
</g>
</svg>
