<?xml version="1.0" encoding="utf-8"?>
<!-- Generator: Adobe Illustrator 19.1.0, SVG Export Plug-In . SVG Version: 6.00 Build 0)  -->
<svg version="1.1" id="Layer_1" xmlns="http://www.w3.org/2000/svg" xmlns:xlink="http://www.w3.org/1999/xlink" x="0px" y="0px"
	 viewBox="0 0 100 100" style="enable-background:new 0 0 100 100;" xml:space="preserve">
<style type="text/css">
	.st0{fill:#75757F;}
</style>
<g>
	<path class="st0" d="M13.1,72.6c-4,4-4,10.4,0,14.4c1.9,1.9,4.5,3,7.2,3c2.7,0,5.3-1,7.2-3c3.9-4,3.9-10.4,0-14.4
		C23.6,68.7,16.9,68.7,13.1,72.6z M24.1,83.6c-2.1,2.1-5.7,2.1-7.8,0c-2.1-2.1-2.1-5.6,0-7.8c1-1,2.4-1.6,3.9-1.6
		c1.5,0,2.9,0.6,3.9,1.6C26.3,78,26.3,81.5,24.1,83.6z"/>
	<path class="st0" d="M97.7,0H81.1c-0.6,0-1.2,0.2-1.6,0.7L31,49.1c-8.5-1.8-17.4,0.8-23.5,6.9C2.7,60.9,0,67.3,0,74.2
		c0,6.9,2.7,13.4,7.6,18.2c4.9,4.9,11.3,7.6,18.2,7.6s13.4-2.7,18.2-7.6c6.1-6.1,8.7-15,6.9-23.5L67.9,52H78c1.2,0,2.2-0.9,2.3-2.1
		l1.2-10.7h9.3c1.2,0,2.2-0.9,2.3-2.1l1.3-11.6l5-5c0.4-0.4,0.7-1,0.7-1.6V2.3C100,1,99,0,97.7,0z M95.3,17.9l-4.8,4.9
		c-0.4,0.4-0.6,0.9-0.7,1.4l-1.1,10.4h-9c-0.6,0-1.6,0.6-2,1C77.3,36,77.1,36.5,77,37l-1.1,10.4h-9c-0.6,0-1.2,0.2-1.6,0.7
		L46.7,66.6c-0.6,0.6-0.8,1.4-0.6,2.2c2,7.4-0.1,15-5.4,20.3c-8,8-21.9,8-29.9,0c-4-4-6.2-9.3-6.2-14.9c0-5.6,2.2-10.9,6.2-14.9
		c3.9-3.9,9.2-6.1,14.8-6.1c1.9,0,3.7,0.2,5.5,0.7c0.8,0.2,1.6,0,2.2-0.6L82,4.7h13.3V17.9z"/>
</g>
</svg>
