<?xml version="1.0" encoding="utf-8"?>
<!-- Generator: Adobe Illustrator 19.1.0, SVG Export Plug-In . SVG Version: 6.00 Build 0)  -->
<svg version="1.1" id="Layer_1" xmlns="http://www.w3.org/2000/svg" xmlns:xlink="http://www.w3.org/1999/xlink" x="0px" y="0px"
	 viewBox="0 0 100 100" style="enable-background:new 0 0 100 100;" xml:space="preserve">
<style type="text/css">
	.st0{fill:#75757F;}
</style>
<g>
	<path class="st0" d="M100,19.9c0-0.2-0.2-0.4-0.2-0.5c-0.1-0.2,0-0.4-0.2-0.6c0,0-0.1,0-0.1-0.1c-0.2-0.2-0.4-0.2-0.6-0.3
		c-0.2-0.1-0.4-0.2-0.6-0.3c0,0-0.1,0-0.1,0H1.8c0,0-0.1,0-0.1,0c-0.2,0-0.4,0.2-0.6,0.3c-0.2,0.1-0.4,0.2-0.6,0.3
		c0,0-0.1,0-0.1,0.1c-0.1,0.2-0.1,0.4-0.1,0.6C0.2,19.5,0,19.7,0,19.9v60.2c0,0.2,0.2,0.4,0.2,0.5c0.1,0.2,0,0.4,0.1,0.6
		c0,0,0.1,0,0.1,0.1c0.3,0.4,0.8,0.6,1.3,0.6h96.4c0.5,0,1-0.3,1.3-0.6c0,0,0.1,0,0.1-0.1c0.1-0.2,0.1-0.4,0.2-0.6
		c0.1-0.2,0.2-0.3,0.2-0.5V19.9z M3.6,23.5L37.7,50L3.6,76.5V23.5z M58.3,48.6C58.3,48.6,58.3,48.6,58.3,48.6l-7.8,6.1L50,55
		l-0.4-0.3l-7.9-6.1c0,0,0,0,0,0L7,21.7H93L58.3,48.6z M40.7,52.3l8.3,6.4c0.2,0.1,0.4,0.1,0.6,0.2c0.1,0,0.2,0.1,0.4,0.1
		C49.9,59,50,59,50,59c0,0,0.1,0,0.1,0c0.1,0,0.2-0.1,0.3-0.1c0.2-0.1,0.4-0.1,0.6-0.2l8.3-6.4L93,78.3H7L40.7,52.3z M62.3,50
		l34.1-26.5v52.9L62.3,50z"/>
</g>
</svg>
