<?xml version="1.0" encoding="utf-8"?>
<!-- Generator: Adobe Illustrator 19.1.0, SVG Export Plug-In . SVG Version: 6.00 Build 0)  -->
<svg version="1.1" id="Layer_1" xmlns="http://www.w3.org/2000/svg" xmlns:xlink="http://www.w3.org/1999/xlink" x="0px" y="0px"
	 viewBox="0 0 100 100" style="enable-background:new 0 0 100 100;" xml:space="preserve">
<style type="text/css">
	.st0{fill:#75757F;}
</style>
<g>
	<path class="st0" d="M68.1,65.5c-0.3-0.3-0.6-0.3-1-0.4c6.7-7.2,10.5-16.5,10.5-26.3c0-10.4-4-20.1-11.4-27.4C58.9,4,49.2,0,38.8,0
		C28.4,0,18.7,4,11.4,11.4C4,18.7,0,28.4,0,38.8c0,10.4,4,20.1,11.4,27.4c7.3,7.3,17.1,11.4,27.4,11.4c9.9,0,19.1-3.8,26.3-10.5
		c0.1,0.4,0.1,0.7,0.4,1l31.4,31.4c0.3,0.3,0.8,0.5,1.3,0.5c0.5,0,0.9-0.2,1.3-0.5c0.7-0.7,0.7-1.8,0-2.5L68.1,65.5z M63.7,63.7
		C57,70.3,48.2,74,38.8,74c-9.4,0-18.2-3.7-24.9-10.3C7.3,57,3.6,48.2,3.6,38.8c0-9.4,3.7-18.2,10.3-24.9
		C20.6,7.3,29.4,3.6,38.8,3.6c9.4,0,18.2,3.7,24.9,10.3C70.3,20.6,74,29.4,74,38.8C74,48.2,70.3,57,63.7,63.7z"/>
	<path class="st0" d="M9.5,38.8h3.6c0-14.2,11.5-25.7,25.7-25.7V9.5C22.6,9.5,9.5,22.6,9.5,38.8z"/>
</g>
</svg>
