<?xml version="1.0" encoding="utf-8"?>
<!-- Generator: Adobe Illustrator 19.1.0, SVG Export Plug-In . SVG Version: 6.00 Build 0)  -->
<svg version="1.1" id="Layer_1" xmlns="http://www.w3.org/2000/svg" xmlns:xlink="http://www.w3.org/1999/xlink" x="0px" y="0px"
	 viewBox="0 0 100 100" style="enable-background:new 0 0 100 100;" xml:space="preserve">
<style type="text/css">
	.st0{fill:#75757F;}
</style>
<g>
	<path class="st0" d="M100,21.5l-0.3-0.7l-0.6-0.5l-0.8-0.3H74.8V6l0-0.5l-0.3-0.7l-0.6-0.6L73.2,4H26.3l-0.5,0l-0.3,0.1
		c-0.3,0.1-0.5,0.3-0.6,0.4l-0.3,0.3l-0.3,0.8v14.3H2c-0.3,0-0.5,0.1-0.8,0.2l-0.4,0.2l-0.2,0.3c-0.2,0.2-0.3,0.4-0.4,0.6L0,21.6V94
		c0,0.3,0.1,0.5,0.2,0.8l0.2,0.4l0.2,0.2c0.2,0.2,0.4,0.4,0.7,0.5L1.7,96H98c0.3,0,0.6-0.1,0.8-0.2l0.4-0.2l0.2-0.2
		c0.2-0.2,0.4-0.4,0.5-0.7l0.2-0.4V22L100,21.5z M27.9,7.5h43.4v12.4v18.4H27.9V19.9V7.5z M24.3,23.4v16.4l0,0.5l0.1,0.3
		c0.1,0.3,0.3,0.5,0.4,0.6l0.3,0.3l0.8,0.3h46.8l0.4,0l0.3-0.1c0.3-0.1,0.5-0.3,0.6-0.4l0.3-0.3l0.3-0.8V23.4h21.7v45.3h-93V23.4
		H24.3z M27.9,92.2V80.5h43.4v11.7H27.9z M74.8,92.5V79l0-0.5l-0.1-0.3c-0.1-0.2-0.2-0.4-0.4-0.6l-0.3-0.3L73.2,77H26.3l-0.4,0
		l-0.3,0.1c-0.3,0.1-0.5,0.3-0.7,0.5l-0.3,0.3l-0.3,0.7v13.9H3.5V72.3h93v20.2H74.8z"/>
	<path class="st0" d="M34.9,33.2c0.1,0.2,0.2,0.4,0.4,0.6l0.3,0.3l0.8,0.4h26.1l0.5,0l0.4-0.2c0.3-0.1,0.5-0.3,0.7-0.6l0.2-0.3
		l0.2-0.6V13.7l0-0.4l-0.1-0.3c-0.1-0.2-0.2-0.4-0.3-0.6l-0.3-0.4l-0.8-0.4H36.7l-0.5,0L35.9,12c-0.2,0.1-0.4,0.3-0.7,0.6l-0.2,0.3
		l-0.2,19.7l0,0.4L34.9,33.2z M38.3,15.3h22.6V31H38.3V15.3z"/>
	<path class="st0" d="M45.3,61c0.7,0.7,1.5,1.3,2.4,1.6c0.9,0.4,1.9,0.6,3,0.6c1.1,0,2.1-0.2,3-0.6c0.9-0.4,1.7-1,2.4-1.6
		c0.7-0.7,1.3-1.5,1.6-2.4c0.4-0.9,0.6-1.9,0.6-3c0-1.1-0.2-2.1-0.6-3c-0.4-0.9-1-1.7-1.6-2.4c-0.7-0.7-1.5-1.3-2.4-1.6
		c-0.9-0.4-1.9-0.6-3-0.6c-1.1,0-2.1,0.2-3,0.6c-0.9,0.4-1.7,1-2.4,1.6c-0.7,0.7-1.3,1.5-1.6,2.4c-0.4,0.9-0.6,1.9-0.6,3
		c0,1.1,0.2,2.1,0.6,3C44,59.4,44.6,60.3,45.3,61z M46.9,53.9c0.2-0.5,0.5-0.9,0.9-1.3c0.4-0.4,0.8-0.7,1.3-0.9
		c0.5-0.2,1-0.3,1.6-0.3c0.6,0,1.1,0.1,1.6,0.3c0.5,0.2,0.9,0.5,1.3,0.9c0.4,0.4,0.7,0.8,0.9,1.3c0.2,0.5,0.3,1,0.3,1.6
		c0,0.6-0.1,1.1-0.3,1.6c-0.2,0.5-0.5,0.9-0.9,1.3c-0.4,0.4-0.8,0.7-1.3,0.9c-0.5,0.2-1,0.3-1.6,0.3c-0.6,0-1.1-0.1-1.6-0.3
		c-0.5-0.2-0.9-0.5-1.3-0.9c-0.4-0.4-0.7-0.8-0.9-1.3c-0.2-0.5-0.3-1-0.3-1.6C46.6,55,46.7,54.4,46.9,53.9z"/>
</g>
</svg>
