<?xml version="1.0" encoding="utf-8"?>
<!-- Generator: Adobe Illustrator 19.1.0, SVG Export Plug-In . SVG Version: 6.00 Build 0)  -->
<svg version="1.1" id="Layer_1" xmlns="http://www.w3.org/2000/svg" xmlns:xlink="http://www.w3.org/1999/xlink" x="0px" y="0px"
	 viewBox="0 0 100 100" style="enable-background:new 0 0 100 100;" xml:space="preserve">
<style type="text/css">
	.st0{fill:#75757F;}
</style>
<g>
	<path class="st0" d="M50,63.8c-7.6,0-13.8-6.2-13.8-13.8c0-7.6,6.2-13.8,13.8-13.8c7.6,0,13.8,6.2,13.8,13.8
		C63.8,57.6,57.6,63.8,50,63.8z M50,39.7c-5.7,0-10.3,4.6-10.3,10.3c0,5.7,4.6,10.3,10.3,10.3c5.6,0,10.2-4.6,10.2-10.3
		C60.3,44.3,55.7,39.7,50,39.7z"/>
	<path class="st0" d="M44,100c-0.8,0-1.5-0.6-1.7-1.4l-3.1-12.3c-2.4-0.7-4.8-1.8-7.1-3l-11,6.6c-0.7,0.4-1.6,0.3-2.2-0.3l-8.5-8.5
		c-0.6-0.6-0.7-1.5-0.3-2.2l6.6-11c-1.2-2.3-2.2-4.6-2.9-7.1L1.4,57.8C0.6,57.6,0,56.9,0,56V44c0-0.8,0.6-1.5,1.4-1.7l12.3-3.1
		c0.8-2.4,1.8-4.8,3-7.1l-6.6-11c-0.4-0.7-0.3-1.6,0.3-2.2l8.5-8.5c0.6-0.6,1.5-0.7,2.2-0.3l11,6.6c2.3-1.2,4.6-2.2,7.1-2.9
		l3.1-12.4C42.4,0.6,43.1,0,44,0H56c0.8,0,1.5,0.6,1.7,1.4l3.1,12.4c2.4,0.8,4.8,1.8,7.1,3l11-6.6c0.7-0.4,1.6-0.3,2.2,0.3l8.5,8.5
		c0.6,0.6,0.7,1.5,0.3,2.2l-6.6,11c1.2,2.3,2.2,4.6,2.9,7l12.4,3.1c0.8,0.2,1.4,0.9,1.4,1.7v12c0,0.8-0.6,1.5-1.4,1.7l-12.4,3.1
		c-0.7,2.4-1.7,4.8-2.9,7l6.6,11c0.4,0.7,0.3,1.6-0.3,2.2l-8.5,8.5c-0.6,0.6-1.5,0.7-2.2,0.3l-11-6.6c-2.3,1.2-4.6,2.2-7.1,3
		l-3.1,12.3c-0.2,0.8-0.9,1.4-1.7,1.4L44,100L44,100z M32.1,79.4c0.3,0,0.6,0.1,0.9,0.2c2.6,1.5,5.4,2.7,8.2,3.5
		c0.6,0.2,1.1,0.7,1.3,1.3l3,12l9.2,0l3-12c0.2-0.6,0.6-1.1,1.3-1.3c2.8-0.8,5.6-2,8.2-3.5c0.6-0.3,1.3-0.3,1.8,0l10.7,6.4l6.5-6.6
		l-6.4-10.7c-0.3-0.6-0.3-1.3,0-1.8c1.5-2.6,2.6-5.3,3.4-8.1c0.2-0.6,0.7-1.1,1.3-1.3l12.1-3v-9.2l-12.1-3c-0.6-0.2-1.1-0.6-1.3-1.3
		c-0.8-2.8-1.9-5.6-3.4-8.1c-0.3-0.6-0.3-1.3,0-1.8l6.4-10.7l-6.5-6.5l-10.7,6.4c-0.6,0.3-1.2,0.4-1.8,0c-2.6-1.5-5.4-2.7-8.2-3.5
		c-0.6-0.2-1.1-0.7-1.3-1.3l-3-12h-9.2l-3,12.1c-0.2,0.6-0.6,1.1-1.3,1.3c-2.8,0.8-5.6,1.9-8.2,3.4c-0.6,0.3-1.3,0.3-1.8,0
		l-10.7-6.4l-6.5,6.5l6.4,10.7c0.3,0.6,0.3,1.3,0,1.8c-1.5,2.6-2.7,5.4-3.5,8.2c-0.2,0.6-0.7,1.1-1.3,1.3l-12,3v9.2l12.1,3
		c0.6,0.2,1.1,0.6,1.3,1.3c0.8,2.8,1.9,5.6,3.4,8.1c0.3,0.6,0.3,1.3,0,1.8l-6.4,10.7l6.5,6.6l10.7-6.4
		C31.4,79.5,31.7,79.4,32.1,79.4z"/>
</g>
</svg>
