<?xml version="1.0" encoding="utf-8"?>
<!-- Generator: Adobe Illustrator 19.1.0, SVG Export Plug-In . SVG Version: 6.00 Build 0)  -->
<svg version="1.1" id="Layer_1" xmlns="http://www.w3.org/2000/svg" xmlns:xlink="http://www.w3.org/1999/xlink" x="0px" y="0px"
	 viewBox="0 0 100 100" style="enable-background:new 0 0 100 100;" xml:space="preserve">
<style type="text/css">
	.st0{fill:#75757F;}
</style>
<g>
	<path class="st0" d="M50,30.1C39,30.1,30.1,39,30.1,50c0,11,8.9,19.9,19.9,19.9c11,0,19.9-8.9,19.9-19.9C69.9,39,61,30.1,50,30.1z
		 M50,66.3c-9,0-16.2-7.3-16.2-16.3c0-9,7.3-16.3,16.2-16.3c9,0,16.3,7.3,16.3,16.3C66.3,59,59,66.3,50,66.3z"/>
	<path class="st0" d="M98.4,36.2l-11.5-1.4l7.1-9.2c0.6-0.7,0.5-1.8-0.1-2.4l-17-17c-0.6-0.6-1.7-0.7-2.4-0.1l-9.2,7.1L63.8,1.6
		C63.7,0.7,63,0,62,0H38c-0.9,0-1.7,0.7-1.8,1.6l-1.4,11.5L25.6,6c-0.7-0.6-1.7-0.5-2.4,0.1l-17,17c-0.6,0.6-0.7,1.7-0.1,2.4
		l7.1,9.2L1.6,36.2C0.7,36.3,0,37,0,38V62c0,0.9,0.7,1.7,1.6,1.8l11.5,1.4L6,74.5c-0.6,0.7-0.5,1.8,0.1,2.4l17,17
		c0.7,0.7,1.7,0.7,2.4,0.1l9.2-7.1l1.4,11.5c0.1,0.9,0.9,1.6,1.8,1.6H62c0.9,0,1.7-0.7,1.8-1.6l1.4-11.5l9.2,7.1
		c0.7,0.6,1.8,0.5,2.4-0.1l17-17c0.6-0.6,0.7-1.7,0.1-2.4l-7.1-9.1l11.5-1.4c0.9-0.1,1.6-0.9,1.6-1.8V38C100,37,99.3,36.3,98.4,36.2
		z M96.4,60.4l-13.1,1.6c-0.6,0.1-1.2,0.5-1.5,1.1c-0.2,0.6-0.2,1.3,0.2,1.8l8.1,10.4L75.4,90.2L65,82.1c-0.5-0.4-1.2-0.5-1.8-0.2
		c-0.6,0.3-1,0.8-1.1,1.5l-1.6,13.1H39.6l-1.6-13.1c-0.1-0.6-0.5-1.2-1.1-1.5c-0.6-0.3-1.3-0.2-1.8,0.2l-10.4,8.1L9.8,75.4L17.9,65
		c0.4-0.5,0.5-1.2,0.2-1.8c-0.3-0.6-0.8-1-1.5-1.1L3.6,60.4V39.6l13.1-1.6c0.6-0.1,1.2-0.5,1.5-1.1c0.2-0.6,0.2-1.3-0.2-1.8
		L9.8,24.6L24.6,9.8L35,17.9c0.5,0.4,1.2,0.5,1.8,0.2c0.6-0.3,1-0.8,1.1-1.5l1.6-13.1h20.9l1.6,13.1c0.1,0.6,0.5,1.2,1.1,1.5
		c0.6,0.2,1.3,0.1,1.8-0.2l10.4-8.1l14.8,14.8L82.1,35c-0.4,0.5-0.5,1.2-0.2,1.8c0.2,0.6,0.8,1,1.4,1.1l13.1,1.6V60.4z"/>
</g>
</svg>
