<?xml version="1.0" encoding="utf-8"?>
<!-- Generator: Adobe Illustrator 19.1.0, SVG Export Plug-In . SVG Version: 6.00 Build 0)  -->
<svg version="1.1" id="Layer_1" xmlns="http://www.w3.org/2000/svg" xmlns:xlink="http://www.w3.org/1999/xlink" x="0px" y="0px"
	 viewBox="0 0 100 100" style="enable-background:new 0 0 100 100;" xml:space="preserve">
<style type="text/css">
	.st0{fill:#75757F;}
</style>
<g>
	<path id="XMLID_38_" class="st0" d="M36.3,82.9h-3.7V41.3h3.7V82.9z M63.7,41.3h3.7v41.5h-3.7V41.3z M51.9,82.9h-3.7V41.3h3.7V82.9
		z"/>
	<path id="XMLID_44_" class="st0" d="M84.8,6.6H58.1V1.9c0-1-0.8-1.9-1.9-1.9H43.8c-1,0-1.9,0.8-1.9,1.9v4.7H15.2
		c-2.5,0-4.5,2-4.5,4.5v18.6H17V100H83V29.7h6.2V11.1C89.3,8.6,87.3,6.6,84.8,6.6z M45.6,3.7h8.8v2.9h-8.8V3.7z M79.3,96.3H51.8
		h-3.7H20.7V29.7h27.5h3.7h27.5V96.3z M85.6,26H83H17h-2.5V11.1c0-0.4,0.4-0.8,0.8-0.8h26.7h3.7h8.8h3.7h26.7c0.4,0,0.8,0.3,0.8,0.8
		V26z"/>
	<rect id="XMLID_47_" x="48.1" y="41.3" class="st0" width="3.7" height="41.5"/>
	<rect id="XMLID_48_" x="48.1" y="41.3" class="st0" width="3.7" height="41.5"/>
	<rect id="XMLID_49_" x="48.1" y="41.3" class="st0" width="3.7" height="41.5"/>
</g>
</svg>
