<?xml version="1.0" encoding="utf-8"?>
<!-- Generator: Adobe Illustrator 19.1.0, SVG Export Plug-In . SVG Version: 6.00 Build 0)  -->
<svg version="1.1" id="Layer_1" xmlns="http://www.w3.org/2000/svg" xmlns:xlink="http://www.w3.org/1999/xlink" x="0px" y="0px"
	 viewBox="0 0 100 100" style="enable-background:new 0 0 100 100;" xml:space="preserve">
<style type="text/css">
	.st0{fill:#75757F;}
</style>
<g>
	<path class="st0" d="M76.2,58c-0.9-0.4-1.9-0.1-2.3,0.8c-4.8,8.7-14,14-23.9,14s-19-5.4-23.9-14c-0.5-0.8-1.5-1.2-2.3-0.8
		C0.3,68.7,0,93.1,0,93.4c0,0.5,0.2,0.9,0.5,1.3c0.3,0.3,0.8,0.5,1.3,0.5h96.4c0.5,0,0.9-0.2,1.3-0.5c0.3-0.3,0.5-0.8,0.5-1.3
		C100,93.1,99.7,68.7,76.2,58z M3.7,91.6C4.2,86.2,7.1,70.4,23.8,62C29.5,71,39.4,76.4,50,76.4S70.5,71,76.2,62
		c16.7,8.4,19.6,24.2,20.1,29.5H3.7z"/>
	<path class="st0" d="M50,66.3c11.6,0,21.1-9.5,21.1-21.1V25.9c0-11.6-9.5-21.1-21.1-21.1c-11.6,0-21.1,9.5-21.1,21.1v19.3
		C28.9,56.8,38.4,66.3,50,66.3z M32.5,25.9c0-9.6,7.8-17.5,17.5-17.5c9.6,0,17.5,7.8,17.5,17.5v19.3c0,9.6-7.8,17.5-17.5,17.5
		c-9.6,0-17.5-7.8-17.5-17.5V25.9z"/>
</g>
</svg>
